<svg xmlns="http://www.w3.org/2000/svg" viewBox="0 0 64 64" width="64" height="64">
  <defs>
    <linearGradient id="faviconGradient" x1="0%" y1="0%" x2="100%" y2="100%">
      <stop offset="0%" style="stop-color:#C89B3C;stop-opacity:1" />
      <stop offset="100%" style="stop-color:#B8872C;stop-opacity:1" />
    </linearGradient>
  </defs>
  
  <!-- Background circle -->
  <circle cx="32" cy="32" r="30" fill="#6B4F3F"/>
  
  <!-- Loom Icon - Simplified weaving pattern -->
  <g transform="translate(16, 16)">
    <!-- Vertical threads -->
    <line x1="4" y1="2" x2="4" y2="30" stroke="#F8F6F3" stroke-width="2.5" opacity="0.6"/>
    <line x1="12" y1="2" x2="12" y2="30" stroke="#F8F6F3" stroke-width="2.5" opacity="0.6"/>
    <line x1="20" y1="2" x2="20" y2="30" stroke="#F8F6F3" stroke-width="2.5" opacity="0.6"/>
    <line x1="28" y1="2" x2="28" y2="30" stroke="#F8F6F3" stroke-width="2.5" opacity="0.6"/>
    
    <!-- Horizontal threads with weave pattern -->
    <path d="M 0,10 Q 4,8 8,10 T 16,10 T 24,10 T 32,10" 
          stroke="url(#faviconGradient)" 
          stroke-width="3" 
          fill="none" 
          stroke-linecap="round"/>
    <path d="M 0,18 Q 4,20 8,18 T 16,18 T 24,18 T 32,18" 
          stroke="url(#faviconGradient)" 
          stroke-width="3" 
          fill="none" 
          stroke-linecap="round"/>
    <path d="M 0,26 Q 4,24 8,26 T 16,26 T 24,26 T 32,26" 
          stroke="url(#faviconGradient)" 
          stroke-width="3" 
          fill="none" 
          stroke-linecap="round"/>
    
    <!-- Corner decorations -->
    <circle cx="2" cy="2" r="2" fill="#C89B3C"/>
    <circle cx="30" cy="2" r="2" fill="#C89B3C"/>
    <circle cx="2" cy="30" r="2" fill="#C89B3C"/>
    <circle cx="30" cy="30" r="2" fill="#C89B3C"/>
  </g>
</svg>
